<svg xmlns="http://www.w3.org/2000/svg" width="430" height="430" fill="none" viewBox="0 0 430 430"><circle cx="215" cy="215" r="167.5" fill="#4bb3fd"/><path fill="#4bb3fd" d="M298.007 360.518c-15.208 4.542-31.323 6.981-48.007 6.981-92.508 0-167.5-74.992-167.5-167.5 0-62.305 34.018-116.664 84.493-145.518C97.881 75.12 47.5 139.176 47.5 214.999c0 92.508 74.992 167.5 167.5 167.5 30.203 0 58.538-7.993 83.007-21.981" opacity=".5" style="mix-blend-mode:multiply"/><circle cx="215" cy="215" r="167.5" stroke="#121331" stroke-width="7"/><path fill="#ebe6ef" d="M125.357 141.364c18.213 26.926 48.245 45.204 82.649 47.387a47 47 0 0 1-.259-4.927c0-25.584 20.74-46.324 46.324-46.324 16.6 0 31.161 8.732 39.34 21.852 9.307.826 18.726-1.548 26.505-6.734-1.51 13.473-8.125 25.195-17.736 33.396q.272 4.017.273 8.104c0 65.38-53.001 118.382-118.382 118.382-26.55 0-51.058-8.74-70.805-23.5a57.4 57.4 0 0 0 23.452 4.971 57.4 57.4 0 0 0 35.362-12.117c-18.288.421-35.222-9.503-43.914-25.3a46.2 46.2 0 0 0 18.898-.088 46.14 46.14 0 0 0 18.5-8.494c-21.938.332-41.759-14.193-47.768-35.686 9.935 5.87 21.975 8.267 34.193 5.892a49 49 0 0 0 8.82-2.585c-24.446-2.037-43.65-22.523-43.65-47.495a47.44 47.44 0 0 1 8.198-26.734"/><g fill="#ebe6ef" opacity=".5" style="mix-blend-mode:multiply"><path d="M160.07 174.019a108.65 108.65 0 0 1-34.713-32.656 47.45 47.45 0 0 0-8.198 26.735c0 20.794 13.317 38.478 31.888 44.989a48 48 0 0 1-.881-1.533 46.2 46.2 0 0 0 18.898-.088 46.1 46.1 0 0 0 18.5-8.495c-21.938.333-41.759-14.192-47.768-35.686a48.8 48.8 0 0 0 22.274 6.734m-7.593 44.062-.488.097c-12.218 2.375-24.258-.022-34.193-5.893 6.009 21.494 25.83 36.019 47.768 35.687q-.266.203-.536.404a57.4 57.4 0 0 0 27.052-11.523c-15.619.36-30.25-6.826-39.603-18.772"/><path d="M151.596 255.263a47 47 0 0 1-4.532 1.203 46.2 46.2 0 0 1-18.898.088c8.692 15.796 25.626 25.721 43.914 25.299a57.4 57.4 0 0 1-35.362 12.117 57.45 57.45 0 0 1-23.452-4.97c19.747 14.76 44.255 23.5 70.805 23.5 56.981 0 104.559-40.258 115.844-93.882-21.517 29.621-56.431 48.882-95.844 48.882-18.844 0-36.66-4.403-52.475-12.237"/></g><path stroke="#121331" stroke-linejoin="round" stroke-width="7" d="M125.357 141.364c18.213 26.926 48.245 45.204 82.649 47.387a47 47 0 0 1-.259-4.927c0-25.584 20.74-46.324 46.324-46.324 16.6 0 31.161 8.732 39.34 21.852 9.307.826 18.726-1.548 26.505-6.734-1.51 13.473-8.125 25.195-17.736 33.396q.272 4.017.273 8.104c0 65.38-53.001 118.382-118.382 118.382-26.55 0-51.058-8.74-70.805-23.5a57.4 57.4 0 0 0 23.452 4.971 57.4 57.4 0 0 0 35.362-12.117c-18.288.421-35.222-9.503-43.914-25.3a46.2 46.2 0 0 0 18.898-.088 46.14 46.14 0 0 0 18.5-8.494c-21.938.332-41.759-14.193-47.768-35.686 9.935 5.87 21.975 8.267 34.193 5.892a49 49 0 0 0 8.82-2.585c-24.446-2.037-43.65-22.523-43.65-47.495a47.44 47.44 0 0 1 8.198-26.734Z"/></svg>